<svg xmlns="http://www.w3.org/2000/svg" viewBox="0 0 165.52 105.97" width="165.52" height="105.97">
  <title>Apple Pay</title>
  <rect width="165.52" height="105.97" rx="15" ry="15" fill="#000"/>
  <g fill="#fff">
    <path d="M40.63 34.67a8.59 8.59 0 0 0 2-6.2 8.73 8.73 0 0 0-5.72 3 8.15 8.15 0 0 0-2 5.93 7.22 7.22 0 0 0 5.72-2.73z"/>
    <path d="M42.6 37.53c-3.17-.19-5.87 1.8-7.38 1.8s-3.83-1.7-6.32-1.66a9.34 9.34 0 0 0-7.94 4.8c-3.4 5.87-0.87 14.58 2.42 19.36 1.62 2.36 3.56 5 6.1 4.9s3.36-1.58 6.3-1.58 3.78 1.58 6.35 1.53 4.3-2.39 5.92-4.76a21.3 21.3 0 0 0 2.68-5.49 8.65 8.65 0 0 1-5.18-7.88 8.78 8.78 0 0 1 4.18-7.35 9 9 0 0 0-7.13-3.67z"/>
    <path d="M68.72 30.08a9.27 9.27 0 0 1 9.84 9.37c0 6.07-4.19 9.5-10 9.5h-6.5v9.84h-4.7V30.08zm-6.66 15.15h5.4c4.22 0 6.63-2.28 6.63-5.75s-2.4-5.73-6.6-5.73h-5.43z"/>
    <path d="M80.53 54.32c0-3.97 3.04-6.4 8.44-6.72l6.2-.35v-1.76c0-2.52-1.7-4.03-4.53-4.03-2.68 0-4.38 1.27-4.78 3.22h-4.3c.25-4.07 3.72-7.08 9.24-7.08s8.77 2.94 8.77 7.52v15.72h-4.35v-3.75h-.1a7.88 7.88 0 0 1-7.03 4.07c-4.38 0-7.56-2.71-7.56-6.84zm14.64-2.06v-1.79l-5.57.33c-2.78.19-4.35 1.4-4.35 3.35s1.66 3.2 4.19 3.2c3.29 0 5.73-2.21 5.73-5.09z"/>
    <path d="M102.75 68.44v-3.63a11.04 11.04 0 0 0 1.43.1c2.06 0 3.19-.87 3.88-3.1l.42-1.33-8.07-22.53h4.9l5.63 18.14h.08l5.63-18.14h4.78l-8.38 23.53c-1.92 5.4-4.13 7.13-8.77 7.13a13.54 13.54 0 0 1-1.53-.17z"/>
  </g>
</svg>
