<svg xmlns="http://www.w3.org/2000/svg" width="435.97" height="173.13" viewBox="0 0 435.97 173.13">
  <g>
    <path fill="#5F6368" d="M207.2 84.56v50.4h-16.1V10h42.7c10.3 0 19.1 3.4 26.2 10.2 7.3 6.8 10.9 15.1 10.9 24.9 0 10.1-3.6 18.4-10.9 25.1-7 6.7-15.8 10.1-26.2 10.1h-26.6zm0-59.2v43.8h27c6.1 0 11.1-2 15.2-6.1 4.2-4.1 6.2-9.1 6.2-14.9 0-5.7-2.1-10.6-6.2-14.7-4-4.1-9.1-6.2-15.2-6.2h-27z"/>
    <path fill="#5F6368" d="M309.8 46.36c11.9 0 21.3 3.2 28.2 9.5 6.9 6.3 10.3 15 10.3 25.9v52.3h-15.4v-11.8h-0.7c-6.7 9.7-15.5 14.6-26.6 14.6-9.4 0-17.3-2.8-23.6-8.4-6.3-5.6-9.5-12.6-9.5-21.1 0-8.9 3.4-16 10.1-21.2 6.7-5.2 15.7-7.8 27-7.8 9.6 0 17.5 1.8 23.7 5.3v-3.7c0-6.3-2.5-11.6-7.4-15.9-4.9-4.3-10.7-6.5-17.3-6.5-10 0-17.9 4.2-23.8 12.7l-14.2-8.9c8.8-12.6 21.7-18.9 38.8-18.9zm-20.9 62.9c0 4.7 2 8.7 6.1 11.8 4 3.1 8.7 4.7 14 4.7 7.6 0 14.3-2.8 20-8.4 5.7-5.6 8.6-12.2 8.6-19.6-5-4.1-12-6.1-20.8-6.1-6.4 0-11.8 1.6-16.1 4.7-4.5 3.2-6.7 7.1-6.7 11.7z" transform="translate(-0.5 0.5)"/>
    <path fill="#5F6368" d="M436.4 49.16l-53.5 123h-16.6l19.9-43.2-35.2-79.8h17.5l25.3 60.8h0.3l24.6-60.8h17.7z" transform="translate(-0.5 0.5)"/>
    <path fill="#4285F4" d="M142.05 73.45c0-4.71-0.4-9.27-1.14-13.64H72.56v25.8h39c-1.68 8.82-6.78 16.29-14.45 21.3v17.7h23.4c13.7-12.6 21.59-31.18 21.59-51.16z" transform="translate(-0.5 0.5)"/>
    <path fill="#34A853" d="M72.56 134.96c19.56 0 35.97-6.48 47.96-17.57l-23.4-17.7c-6.49 4.35-14.79 6.92-24.56 6.92-18.89 0-34.88-12.76-40.58-29.91H7.83v18.28c11.92 23.69 36.42 39.98 64.73 39.98z" transform="translate(-0.5 0.5)"/>
    <path fill="#FBBC04" d="M31.98 76.7c-1.45-4.35-2.28-9-2.28-13.82s0.83-9.46 2.28-13.82V30.78H7.83C3.02 40.36 0.28 51 0.28 62.88c0 11.88 2.74 22.52 7.55 32.1l24.15-18.28z" transform="translate(-0.5 0.5)"/>
    <path fill="#EA4335" d="M72.56 23.15c10.65 0 20.21 3.66 27.74 10.85l20.8-20.8C108.47 1.88 92.04-4.63 72.56-4.63 44.25-4.63 19.75 11.65 7.83 35.34l24.15 18.28c5.7-17.15 21.69-30.47 40.58-30.47z" transform="translate(0 10.13)"/>
  </g>
</svg>
